<?xml version="1.0" standalone="no"?>
<!DOCTYPE svg PUBLIC "-//W3C//DTD SVG 20010904//EN"
 "http://www.w3.org/TR/2001/REC-SVG-20010904/DTD/svg10.dtd">
<svg version="1.0" xmlns="http://www.w3.org/2000/svg"
 width="537.000000pt" height="213.000000pt" viewBox="0 0 537.000000 213.000000"
 preserveAspectRatio="xMidYMid meet">

<g transform="translate(0.000000,213.000000) scale(0.100000,-0.100000)"
fill="#000000" stroke="none">
<path d="M4329 1551 c7 -5 13 -25 13 -45 0 -20 4 -39 9 -42 5 -3 9 15 9 40 0
34 4 46 18 49 9 3 -1 5 -23 6 -26 0 -35 -2 -26 -8z"/>
<path d="M4400 1508 c1 -41 3 -49 11 -35 5 9 7 22 4 27 -3 6 -2 10 3 10 5 0
15 -12 22 -27 l13 -28 17 40 18 40 4 -40 c4 -37 5 -36 6 13 2 61 -10 67 -31
15 l-15 -38 -18 38 c-10 20 -21 37 -26 37 -4 0 -8 -24 -8 -52z"/>
<path d="M970 1443 c0 -32 435 -958 451 -961 12 -2 48 67 137 260 66 145 167
361 222 482 68 145 98 222 92 228 -6 6 -14 8 -19 5 -4 -3 -102 -210 -218 -460
-115 -251 -213 -453 -217 -449 -3 4 -97 205 -208 447 -112 242 -207 446 -213
453 -14 17 -27 15 -27 -5z"/>
<path d="M2114 1441 c-23 -10 -52 -34 -65 -52 l-24 -34 -3 -377 c-3 -361 -2
-379 17 -417 11 -21 37 -50 58 -62 37 -24 43 -24 343 -27 331 -4 388 2 433 44
58 54 58 50 55 462 l-3 377 -24 34 c-48 67 -68 71 -426 71 -291 0 -324 -2
-361 -19z m716 -36 c63 -32 65 -45 68 -417 2 -210 -1 -352 -7 -376 -6 -21 -25
-51 -41 -67 l-31 -30 -345 0 -346 0 -33 36 c-45 49 -47 76 -43 464 3 294 5
322 22 348 38 55 43 56 399 57 274 0 333 -2 357 -15z"/>
<path d="M2399 1033 c-3 -35 -1 -134 2 -137 5 -5 53 -8 107 -7 l42 1 0 75 0
75 -75 0 c-41 0 -75 -3 -76 -7z"/>
<path d="M3070 1440 c0 -19 8 -20 419 -22 l420 -3 -356 -385 c-510 -553 -494
-535 -481 -548 9 -9 128 -12 439 -12 235 0 434 3 443 6 9 3 16 12 16 20 0 12
-68 14 -421 14 l-421 0 28 32 c15 18 203 224 418 457 215 233 392 432 394 442
3 18 -13 19 -447 19 -444 0 -451 0 -451 -20z"/>
<path d="M4117 1454 c-4 -4 -7 -225 -7 -491 0 -477 0 -483 20 -483 20 0 20 5
18 487 -3 467 -6 512 -31 487z"/>
</g>
</svg>
